<svg xmlns="http://www.w3.org/2000/svg" width="33" height="32" xmlns:v="https://vecta.io/nano"><path d="M18.113 3.496v.09l.078.031c.664.371 1.094 1.297 1.32 2.004.11.43.141.844.134 1.29v.48h.113q.532-.004 1.066-.008h.551q.264-.005.527-.004h.203q.141-.005.282-.004h.164a.8.8 0 0 1 .55.285c.243.317.231.774.262 1.156l.012.157q.024.24.043.48.03.322.055.637.01.074.015.156.042.471.106.941l.144 1.516.137 1.356.11 1.035.007.094q.037.376.067.757l.054.567.024.261q.041.502.113 1.004l.063.672q.034.438.085.875l.157 1.594q.022.234.047.469l.023.289.082.676c.066.742.066.742-.062 1.02a.9.9 0 0 1-.461.308c-.153.011-.301.008-.454.008h-.128q-.21.001-.415-.004h-.28q-.345-.002-.688-.004c.023-.207.05-.403.101-.602q.023-.065.04-.137l.038-.14.082-.309.043-.16.2-.742.039-.145.281-1.082q.098-.38.203-.765a6 6 0 0 0 .078-.29l.059-.21c.234-.774.234-.774.113-1.547a1.27 1.27 0 0 0-.535-.512 2 2 0 0 0-.45-.05h-.894c-.16 0-.32-.005-.48-.005h-.828q-.598-.005-1.196-.004-.973-.003-1.945-.007-.944-.002-1.887-.004h-.117q-.292-.002-.586-.004l-4.844-.012-.105-.344q-.016-.045-.031-.097l-.145-.477c-.16-.555-.305-.984-.812-1.289-.286-.117-.586-.11-.887-.121-.047 0-.09-.004-.137-.004a9 9 0 0 0-.328-.016 6 6 0 0 1 .05-.972l.09-.938q.038-.427.087-.847a43 43 0 0 0 .105-.97l.035-.32.117-1.18q.013-.178.032-.358l.023-.235.027-.324.008-.094c.028-.277.09-.527.27-.746a.94.94 0 0 1 .683-.246h.09l.29.004h.202q.264-.001.528.004.27-.001.539.004.532-.001 1.058.004v-.422q-.004-.058-.003-.121a4.72 4.72 0 0 1 .09-.918l.023-.137c.117-.617.43-1.145.808-1.633l.07-.101.06-.075h.09l.085-.18h.086q.016-.036.031-.074c.274-.476 1.094-.789 1.59-.94 1.285-.337 2.582-.067 3.66.706m-4.71 1.328c-.676.817-.7 1.48-.7 2.567h5.805c0-.993-.055-1.856-.742-2.61h-.086l-.032-.078c-.242-.418-.886-.668-1.324-.808-.23-.055-.453-.051-.687-.051q-.064-.005-.13-.004c-.827 0-1.546.379-2.105.984m5.062 4.516c-.274.328-.3.547-.262.973.063.246.23.367.442.488.246.125.503.129.765.05.242-.105.39-.226.504-.468.082-.274.09-.57-.043-.828-.09-.133-.09-.133-.226-.215q-.004.045-.008.098c-.02.285-.04.476-.246.687a.67.67 0 0 1-.52.07.8.8 0 0 1-.32-.37l-.024-.247-.011-.137q-.004-.05-.008-.101zm-6.985.043c-.18.191-.238.328-.246.594.012.335.121.52.352.75a1.02 1.02 0 0 0 .816.14c.286-.09.414-.262.555-.527.086-.266.086-.457-.027-.707a.52.52 0 0 0-.227-.25l-.015.097-.024.133a2 2 0 0 0-.02.13c-.07.312-.07.312-.19.405-.208.067-.356.09-.567.032a.68.68 0 0 1-.32-.399 3 3 0 0 1-.044-.398zm0 0" fill="#4f318f"/><path d="M6.441 14.95h1.344c.293 0 .594.007.86.144v.086l.078.035c.308.183.386.723.472 1.047q.018.065.035.14.127.47.243.95h.129l8.3.007q.704.004 1.407.008.61-.001 1.214.004h.633l.582.004h.215c.832 0 .832 0 1.137.266.168.207.156.379.133.64-.063.352-.16.7-.258 1.043a17 17 0 0 0-.242.98l-.293 1.176-.211.852q-.133.579-.301 1.145-.046.146-.086.293c-.074.285-.156.449-.402.62-.196.114-.375.11-.594.106h-.125q-.211-.002-.418-.004-.154-.002-.3-.004-.325.001-.65-.004-.51-.005-1.019-.004h-.441q-.493-.002-.992-.003h-.094l-1.473-.012q-.756-.005-1.511-.004c-.286 0-.567 0-.852-.004q-.399-.005-.797-.004-.147.001-.293-.004c-.473-.031-.473-.031-.898.125-.137.156-.203.332-.278.52l-.152.238c-.102.18-.164.309-.152.516a.32.32 0 0 0 .172.175c.136.028.273.024.41.024h2.543q.72.005 1.449.004h4.777.297.523c.258.004.446.043.645.222.09.188.121.391.074.594a.56.56 0 0 1-.285.352c-.14.02-.281.02-.422.02h-2.52-1.675q-.763 0-1.531.003h-4.125c-.446-.004-.79-.172-1.11-.484-.304-.356-.406-.719-.379-1.184.059-.504.32-.894.594-1.308q.051-.075.102-.157.066-.105.136-.21c.114-.247-.007-.489-.082-.739q-.14-.472-.257-.957a7 7 0 0 0-.141-.48q-.098-.305-.191-.618l-.036-.113q-.03-.117-.066-.234l-.105-.352-.293-1.008q-.082-.293-.18-.585-.075-.231-.145-.465l-.035-.106q-.17-.553-.336-1.11l-.23-.718c-.024-.082-.024-.082-.024-.215h-.078q-.41.004-.82.008-.153-.001-.305.004h-.437q-.071.002-.137.004c-.258 0-.441-.024-.668-.149-.121-.125-.168-.27-.195-.441.027-.18.097-.293.195-.445h.086l.047-.133c.262-.11.523-.102.808-.098m12.696 12.742l.101.004c.356.004.594.106.883.32q.058.035.11.075c.277.265.433.605.46.988.008.512-.128.918-.476 1.293-.344.3-.735.406-1.184.39a1.54 1.54 0 0 1-1.035-.507c-.055-.07-.055-.07-.055-.156h-.09l-.081-.188q-.024-.047-.047-.101a1.64 1.64 0 0 1-.016-1.141 1.89 1.89 0 0 1 .758-.871 1.79 1.79 0 0 1 .672-.106m-6.696.192c.325.23.61.562.688.965.047.441.027.894-.211 1.28q-.04.049-.086.102h-.086l-.023.075c-.145.23-.38.34-.633.41-.54.082-.957.055-1.414-.262a1.42 1.42 0 0 1-.547-.976c-.043-.465.02-.88.32-1.247.496-.554 1.332-.757 1.992-.347m0 0" fill="#fa7900"/><path d="M9.863 22.441c.16.157.188.399.246.61l.043.148q.022.07.043.14l.035.13c.043.187.051.3-.035.468q-.043.07-.09.141l-.046.074-.246.383c-.329.524-.512 1.004-.41 1.633.09.309.34.578.597.762.336.183.707.215 1.086.215h.852q.404.004.816.003h2.391q.737.005 1.48.004.757.005 1.52.004h.851.805q.146.002.293.004h.519c.196-.004.27-.008.43-.133.117-.16.113-.261.102-.453a.46.46 0 0 0-.192-.328c-.242-.05-.48-.05-.726-.05H17.28q-.493-.006-.992-.005H14.73q-.755 0-1.511-.003H10.77c-.192-.004-.27-.012-.426-.133-.086-.117-.086-.117-.117-.258.046-.25.164-.438.293-.656q.05-.089.101-.176.053-.09.102-.18.029-.042.05-.086c.157-.262.157-.262.27-.355a5 5 0 0 1 .395-.016h.534q.149.005.298.004h.636q.499.005 1.004.004.709.002 1.41.004h.09q.363.002.727.004.316-.001.633.004h.093q.744-.001 1.489.004.497 0 1 .003h.91l.394.004h.114c.25 0 .484-.035.707-.148a1.1 1.1 0 0 0 .175-.266.34.34 0 0 1 .043.176c-.14.168-.3.336-.523.367q-.166.006-.324 0h-.13q-.206.001-.417-.004H20q-.322-.002-.645-.004-.514-.004-1.023-.003h-.442q-.495-.002-.992-.004h-.093q-.74-.001-1.473-.008-.761-.005-1.516-.004c-.285 0-.566-.004-.851-.004q-.398-.005-.8-.004-.148.001-.294-.004c-.473-.031-.473-.031-.898.125-.137.156-.203.332-.278.52l-.152.238c-.102.18-.164.309-.152.516a.32.32 0 0 0 .172.175c.136.028.273.024.41.024h2.543q.72.005 1.449.004h4.777.297.523c.258.004.446.043.645.222.09.188.121.391.074.594a.56.56 0 0 1-.285.352c-.14.02-.281.02-.422.02h-2.52-1.675q-.763 0-1.531.003h-4.125c-.446-.004-.79-.172-1.11-.484-.304-.356-.406-.719-.379-1.184.059-.504.32-.894.594-1.308q.051-.075.102-.157.066-.105.136-.21c.125-.274-.039-.594-.125-.868a1.7 1.7 0 0 1-.078-.59m0 0" fill="#fc6202"/><path d="M7.508 12.527h.043c.015.426-.035.844-.086 1.27q-.011.105-.027.21l-.06.509h.083q.199-.007.39-.008l.133-.008c.422-.004.793.102 1.102.406.316.387.437.864.57 1.336l.047.168.117.41h.082q2.427.001 4.852.008h.699q.936.002 1.879.004.96-.001 1.926.004h1.187l.817.004h1.129c.355.004.652.07.945.281.32.34.383.598.379 1.067-.016.3-.098.59-.176.882l-.082.317-.055.199-.023.098c-.04.14-.074.242-.156.367-.032-.387.093-.75.199-1.117.2-.692.2-.692.074-1.383a1.27 1.27 0 0 0-.535-.512 2 2 0 0 0-.45-.05h-.894c-.16 0-.32-.005-.48-.005h-.828q-.598-.005-1.196-.004-.973-.003-1.945-.007-.944-.002-1.887-.004h-.117q-.292-.002-.586-.004l-4.844-.012-.105-.344q-.016-.045-.031-.097l-.145-.477c-.16-.555-.305-.984-.812-1.289-.286-.117-.586-.11-.887-.121-.047 0-.09-.004-.137-.004a9 9 0 0 0-.328-.016 7.5 7.5 0 0 1 .074-1.183 9 9 0 0 0 .04-.313l.011-.105q.007-.1.02-.2c.027-.23.027-.23.074-.277m0 0" fill="#33177c"/><path d="M9.516 17.352l8.382.007q.704.004 1.407.008.609-.001 1.218.004h.63q.293.002.585.004h.211c.836 0 .836 0 1.14.266.169.207.157.379.134.64-.07.407-.188.801-.305 1.2q-.053.204-.102.41a2 2 0 0 1-.027.129l-.055.25-.023.117-.023.105a.46.46 0 0 1-.165.223q.066-.397.16-.79.054-.206.102-.405l.04-.157.105-.437q.023-.087.043-.18c.086-.332.148-.613.074-.953a.66.66 0 0 0-.262-.223l-.183-.004q-.059-.004-.122-.003h-.265q-.232-.005-.465-.004-.164.001-.332-.004-.358.001-.711-.004-.523-.001-1.039-.008l-1.695-.012h-.102q-.205.001-.41-.004-.56-.001-1.121-.007h-.102l-1.68-.012q-.467-.002-.94-.004a180 180 0 0 1-4.102-.067zm0 0" fill="#f96f0a"/><path d="M18.113 3.496v.09l.078.031c.664.371 1.094 1.297 1.32 2.004.11.43.141.844.134 1.29v.48h.113q.532-.004 1.066-.008h.551q.264-.005.527-.004h.203q.141-.005.282-.004h.164a.8.8 0 0 1 .55.285c.231.297.227.719.262 1.082l.012.117a3.37 3.37 0 0 1-.023.79h-.043l-.012-.141-.055-.524-.023-.226q-.016-.16-.032-.324l-.011-.102a1.5 1.5 0 0 0-.172-.586c-.23-.187-.399-.226-.688-.23h-.09q-.151-.005-.296-.004-.102-.005-.203-.004l-.54-.008q-.275-.001-.55-.008l-1.082-.012q-.001-.058-.008-.12l-.024-.446-.011-.191c-.07-1.203-.492-2.172-1.364-3.012-.89-.773-2.043-.953-3.175-.879a3.67 3.67 0 0 0-1.922.887l-.106.082c-.511.433-.89 1.105-1.117 1.73-.066-.21.008-.37.09-.574.18-.34.39-.691.652-.973h.09l.086-.18h.086q.016-.036.031-.074c.274-.476 1.094-.789 1.59-.94 1.285-.337 2.582-.067 3.66.706m0 0" fill="#2d117c"/><path d="M17.332 4.277c.637.465 1.059 1.145 1.234 1.918.063.399.059.836.028 1.242-.074.075-.168.047-.27.047h-5.562c-.102-.004-.102-.004-.192-.046-.02-1.06.153-1.981.875-2.79 1.043-1.074 2.664-1.187 3.887-.37m-3.93.547c-.675.817-.699 1.48-.699 2.567h5.805c0-.993-.055-1.856-.742-2.61h-.086l-.032-.078c-.242-.418-.886-.668-1.324-.808-.23-.055-.453-.051-.687-.051q-.064-.005-.13-.004c-.827 0-1.546.379-2.105.984m0 0" fill="#260a77"/><path d="M12.441 27.883c.325.23.61.562.688.965.047.441.027.894-.211 1.28q-.04.049-.086.102h-.086l-.023.075c-.145.23-.38.34-.633.41-.543.082-.957.055-1.414-.262a1.7 1.7 0 0 1-.461-.578 4 4 0 0 1 0-.309c.074.114.125.22.183.344.18.367.446.535.82.672.395.121.794.043 1.153-.14a1.34 1.34 0 0 0 .61-.778c.085-.465.046-.906-.215-1.305-.203-.257-.48-.46-.805-.52-.492-.034-.883 0-1.281.317-.293.278-.418.645-.446 1.043l-.011.156q-.004.061-.008.122h-.086c-.024-.477.012-.868.32-1.247.496-.554 1.332-.757 1.992-.347m6.696-.192l.101.004c.356.004.594.106.883.32q.058.035.11.075c.277.265.433.605.46.988.008.512-.128.918-.476 1.293-.344.3-.735.406-1.184.39a1.54 1.54 0 0 1-1.035-.507c-.055-.07-.055-.07-.055-.156h-.09c-.152-.27-.19-.489-.187-.793q-.002-.05-.004-.098c.004-.168.012-.25.106-.395q-.004.063-.008.125a2.2 2.2 0 0 0 .226 1.114q.022.053.043.105c.043.09.043.09.176.117v.09q.042.018.09.035.14.059.273.122a1.49 1.49 0 0 0 1.106.02c.394-.177.617-.423.805-.81a1.87 1.87 0 0 0-.04-1.132c-.187-.328-.437-.586-.789-.723-.382-.098-.816-.094-1.175.082-.34.207-.512.445-.664.813h-.043c.015-.336.16-.528.398-.754.305-.254.586-.325.973-.325m0 0" fill="#fb5f01"/><path d="M23.18 20.094c.074.183.008.347-.043.527l-.032.106q-.032.113-.062.226-.084.3-.168.598l-.031.125-.328 1.25q-.011.053-.028.105l-.14.559.75-.012q.13.001.257-.004.182-.002.368-.004.054.001.113-.004c.258-.003.441-.05.644-.218.2-.254.106-.746.075-1.051l-.012-.102c-.02-.199-.016-.398-.012-.597h.043c.281 1.312.281 1.312.07 1.77a.88.88 0 0 1-.46.312c-.153.011-.301.008-.454.008h-.128q-.21.001-.415-.004h-.28q-.345-.002-.688-.004c.023-.207.05-.403.101-.602q.023-.065.04-.137l.038-.14.082-.309.043-.16q.104-.374.204-.754l.039-.14q.088-.334.172-.672l.03-.118.055-.218c.059-.239.059-.239.157-.336m0 0" fill="#301379"/><path d="M19.25 5.18c.016.027.027.058.043.086h.09c.21.543.27 1.066.262 1.644v.48h.113q.532-.003 1.066-.007h.551q.264-.005.527-.004h.203q.141-.005.282-.004h.164a.8.8 0 0 1 .55.285c.231.297.227.719.262 1.082l.012.117a3.37 3.37 0 0 1-.023.79h-.043l-.012-.141-.055-.524-.023-.226q-.016-.16-.032-.324l-.011-.102a1.5 1.5 0 0 0-.172-.586c-.23-.187-.399-.226-.688-.23h-.09q-.151-.005-.296-.004-.102-.005-.203-.004l-.54-.008q-.275-.001-.55-.008l-1.082-.012q-.002-.058-.004-.12a17 17 0 0 1-.028-.442l-.011-.191a5.3 5.3 0 0 0-.219-1.329q-.024-.109-.043-.218m0 0" fill="#280b79"/><path d="M18.508 9.16q.042.024.086.047l.027.43a.71.71 0 0 0 .234.453c.106.015.106.015.22.008h.113c.113-.004.113-.004.238-.051a1.24 1.24 0 0 0 .09-.57v-.153q-.002-.058-.004-.117l.133-.047.144.164.082.094c.207.27.195.566.164.895-.066.261-.215.417-.433.566-.27.16-.532.168-.832.098a1.1 1.1 0 0 1-.61-.532c-.094-.28-.098-.636.027-.906.09-.148.196-.262.32-.379m-.043.18c-.274.328-.3.547-.262.973.063.246.23.367.442.488.246.125.503.129.765.05.242-.105.39-.226.504-.468.082-.274.09-.57-.043-.828-.09-.133-.09-.133-.226-.215q-.004.045-.008.098c-.02.285-.04.476-.246.687a.67.67 0 0 1-.52.07.8.8 0 0 1-.32-.37l-.024-.247-.011-.137q-.004-.05-.008-.101zm0 0" fill="#2c127d"/><path d="M11.48 9.25q.064.025.13.043l.011.121c.04.316.04.316.168.602.176.101.32.117.52.074.109-.082.16-.14.218-.266a4 4 0 0 0 .024-.293l.011-.156.008-.125c.207.031.207.031.313.137.176.273.265.515.21.836-.1.328-.273.539-.566.71-.25.083-.554.098-.804.005a1.3 1.3 0 0 1-.547-.626c-.04-.312-.051-.59.129-.855.054-.074.11-.14.175-.207m0 .133c-.18.191-.238.328-.246.594.012.335.121.52.352.75.258.164.52.207.816.14.286-.09.414-.262.555-.527.086-.266.086-.457-.027-.707a.52.52 0 0 0-.227-.25l-.015.097-.024.133a2 2 0 0 0-.02.13c-.07.312-.07.312-.19.405-.208.067-.356.09-.567.032a.68.68 0 0 1-.32-.399 3 3 0 0 1-.044-.398zm0 0" fill="#270c79"/><path d="M6.441 14.95h1.344c.293 0 .594.007.86.144v.086a.5.5 0 0 0 .078.027c.132.086.168.18.226.328.008.13.008.13 0 .223a.74.74 0 0 1-.172-.266c-.066-.14-.125-.23-.265-.312-.137-.047-.235-.047-.38-.051H6.825l-.437-.004H5.93a.8.8 0 0 0-.344.102c-.04.09-.04.09-.043.175h-.086l.012.215q.007.06.008.117c.027.13.046.168.156.243.238.105.469.105.726.109h.133q.21.007.422.008.142.005.285.004l.703.011v.047l-.879.024-.3.011-.43.012q-.064.002-.133.004c-.258.008-.433-.016-.66-.14-.121-.126-.168-.27-.195-.442.027-.18.097-.293.195-.445h.086l.047-.133c.262-.11.523-.102.808-.098m0 0" fill="#fa6604"/><path d="M23.441 10.578c.118.121.11.203.13.375l.011.094.156 1.656.16 1.555.102.949q.011.117.027.234c.059.563.078 1.121.067 1.688h-.043l-.246-2.371q-.011-.078-.016-.16l-.082-.828-.086-.852-.066-.664-.028-.313a17 17 0 0 1-.043-.437q-.01-.065-.015-.129a7 7 0 0 1-.028-.797m0 0" fill="#240a7a"/><path d="M7.508 12.527h.043c.015.426-.035.844-.086 1.27q-.011.105-.027.21l-.06.509h.083q.199-.007.39-.008l.133-.008c.422-.004.793.102 1.102.406.394.48.734 1.418.734 2.047h-.086l-.066-.219-.059-.187q-.076-.246-.148-.492c-.164-.559-.309-1-.82-1.309-.286-.117-.586-.11-.887-.121-.047 0-.09-.004-.137-.004a9 9 0 0 0-.328-.016 7.5 7.5 0 0 1 .074-1.183 9 9 0 0 0 .04-.313l.011-.105q.007-.1.02-.2c.027-.23.027-.23.074-.277m0 0" fill="#301676"/><path d="M11.61 6.195h.046l-.02.528q0 .092-.003.18l-.008.257-.004.156c-.012.122-.012.122-.055.164q-.136.007-.265.008h-.27q-.146.005-.293.004-.411.007-.824.008-.254.004-.508.008h-.191q-.135-.001-.27.004H8.79c-.234.02-.402.054-.574.218-.184.286-.203.59-.23.918l-.012.125q-.017.151-.028.301h-.043q-.006-.235-.007-.465-.005-.064-.004-.132c-.004-.332.027-.59.242-.856a.94.94 0 0 1 .683-.246h.09l.29.004h.202q.264-.001.528.004.27-.001.539.004.532-.001 1.058.004v-.075q-.004-.176-.003-.347l-.004-.121c0-.235.02-.43.093-.653m0 0" fill="#290b7a"/><path d="M9.516 17.352h2.707v.043l5.414.043v.046h-3.492c-3.176.008-3.176.008-4.63-.047zm0 0" fill="#fb5e01"/><path d="M23.09 17.617c.144.16.156.317.148.524-.05.457-.191.902-.32 1.34q-.053.204-.102.41a2 2 0 0 1-.027.129l-.055.25-.023.117-.023.105a.46.46 0 0 1-.165.223q.066-.397.16-.79.054-.206.102-.405l.04-.157.105-.437q.023-.087.043-.18c.086-.332.148-.613.074-.953a.66.66 0 0 0-.262-.223 3 3 0 0 0-.258-.011q-.075-.004-.152-.008c-.055 0-.105-.004-.164-.004l-.16-.008-.399-.012v-.043l.371-.023q.049-.004.102-.008c.691-.039.691-.039.965.164m0 0" fill="#f95b01"/><path d="M22.656 16.863c.399.067.625.219.895.524.21.312.195.715.137 1.078q-.066.302-.149.605l-.082.317-.055.199-.023.098c-.04.14-.074.242-.156.367-.032-.387.093-.75.199-1.117.2-.692.2-.692.074-1.383a1.2 1.2 0 0 0-.676-.559c-.12-.039-.12-.039-.164-.129m0 0" fill="#2b0d75"/><path d="M19.598 9.16c.21.16.386.309.437.578.027.305.047.582-.129.84l-.09-.043q.025-.05.043-.101c.078-.29.114-.614-.039-.883-.078-.114-.078-.114-.133-.168l-.007.117c-.051.469-.051.469-.22.625a.75.75 0 0 1-.472.145.66.66 0 0 1-.394-.266c-.008-.121-.008-.121 0-.223l.082.106c.09.113.09.113.18.203.105.015.105.015.218.008h.113c.114-.004.114-.004.239-.051.082-.192.097-.36.09-.57v-.153q-.002-.058-.004-.117.042-.024.086-.047m0 0" fill="#290d79"/><path d="M22.48 20.758c.086.133.086.133.067.273q-.024.093-.043.18a1 1 0 0 0-.027.102q-.042.162-.082.332l-.063.242q-.07.258-.133.515-.11.427-.215.856-.071.299-.16.597h-.129a51 51 0 0 1 .418-1.699l.063-.246.304-1.152m0 0" fill="#fa5c01"/><path d="M15.594 2.648h.11c.378.004.745.043 1.1.184-.1.063-.156.09-.277.078l-.109-.027a4 4 0 0 0-.848-.063h-.156a4 4 0 0 0-1.055.145 5 5 0 0 1-.347.043c.043-.086.043-.086.207-.14l.21-.06.106-.03a3.9 3.9 0 0 1 1.059-.13m0 0" fill="#391c83"/><path d="M8.207 16.906a.55.55 0 0 1 .152.282l.04.117.039.129.039.132q.045.139.085.278l.133.426.082.27q.022.057.043.128l.035.117.032.106a.47.47 0 0 1-.028.273c-.105-.11-.113-.184-.148-.336a6 6 0 0 0-.2-.68q-.082-.251-.16-.496l-.042-.129c-.067-.21-.121-.39-.102-.617m0 0" fill="#fb5a00"/><path d="M23.18 20.094a.54.54 0 0 1 .004.36l-.028.105q-.016.054-.031.113-.019.058-.031.117l-.07.246q-.049.188-.102.375-.03.116-.067.238l-.027.114q-.016.053-.031.105-.011.047-.027.094c-.028.082-.028.082-.114.215a2.08 2.08 0 0 1 .094-.723l.059-.21q.018-.054.03-.106l.095-.348.027-.117q.03-.112.055-.223c.066-.258.066-.258.164-.355m0 0" fill="#2a0f74"/><path d="M9.21 20.227c.122.12.15.265.196.43q.02.05.031.1l.067.22q.05.163.101.328c.106.36.207.715.258 1.09a.57.57 0 0 1-.191-.32l-.027-.11q-.019-.064-.032-.121l-.07-.254-.035-.13q-.1-.35-.219-.69a1.35 1.35 0 0 1-.078-.543m0 0" fill="#fc5900"/><path d="M9.121 15.137h.133a7.5 7.5 0 0 1 .43 1.18l.043.144c.093.34.093.34.093.492h-.086l-.066-.219-.059-.187-.152-.496a6 6 0 0 0-.336-.914m0 0" fill="#290b6d"/><path d="M23.879 15.047h.043c.137.703.18 1.367.172 2.082h-.043l-.063-.567q-.008-.08-.015-.16l-.094-1.355m0 0" fill="#280b78"/><path d="M8.95 15.8q.063.022.128.044a.78.78 0 0 1 .067.203l.03.125.036.133.031.129.067.253.164.618q-.044.044-.086.09l-.168-.532-.055-.18-.082-.261q-.023-.077-.05-.16a4 4 0 0 1-.083-.461m0 0" fill="#f96002"/><path d="M24.094 17.172c.246.25.21 1.039.218 1.375-.007.121-.019.23-.042.351h-.043l-.067-.562-.02-.16a8 8 0 0 1-.046-1.004m0 0" fill="#240875"/><path d="m24.27 18.941.085.047c.024.11.04.211.051.32l.012.098c.043.422.035.844.027 1.262h-.043q-.036-.292-.066-.586-.01-.087-.02-.168a7 7 0 0 1-.046-.973m0 0" fill="#210774"/><path d="M7.508 12.527h.043c.011.368-.02.727-.067 1.09q-.008.08-.015.16l-.047.387h-.043a9 9 0 0 1 .039-1.27l.012-.097c.027-.223.027-.223.078-.27m0 0" fill="#210773"/><path d="M7.684 10.844h.043a8 8 0 0 1-.067 1.043q-.007.085-.02.172l-.046.421H7.55c-.012-1.304-.012-1.304.133-1.636m0 0" fill="#250b77"/><path d="M23.79 13.719h.042c.078.547.113 1.09.133 1.64h-.043v-.312h-.09c-.043-.442-.047-.879-.043-1.328m0 0" fill="#351786"/><path d="M11.48 9.25c.086.09.086.09.094.195v.121q-.005.059-.004.121.001.048-.004.094h-.043q-.02-.175-.043-.355c-.218.25-.21.52-.218.844h-.043c-.094-.551-.094-.551.082-.81l.18-.21m0 0" fill="#32157d"/><path d="M23.613 17.793h.047c.05.398.031.723-.09 1.105h-.086l-.043.133c.016-.187.032-.363.086-.543a3.14 3.14 0 0 0 .086-.695m0 0" fill="#361676"/><path d="M22.348 23.059a.63.63 0 0 1 .027.34l-.016.109-.011.082.14-.004a1.62 1.62 0 0 1 .383.05v.044h-.652c.023-.22.054-.41.129-.621m0 0" fill="#3b1a75"/><path d="M8.906 19.207c.121.125.153.273.203.438l.032.097c.05.168.078.274.027.442-.164-.301-.29-.63-.262-.977m0 0" fill="#fd5b00"/><path d="M19.95 9.691l.085.047c.024.61.024.61-.129.84l-.09-.043q.022-.06.043-.113a2 2 0 0 0 .075-.457q0-.075.007-.156l.008-.118m0 0" fill="#250b71"/><path d="M24.27 18.941l.085.047c.02.09.02.09.028.207l.012.125.011.133.012.137.027.328c-.09-.09-.09-.09-.097-.184q.005-.058.004-.109 0-.058.003-.11v-.085h-.085zm0 0" fill="#32147d"/><path d="M24.094 17.172c.12.125.12.25.14.414l.012.094c.02.148.031.277-.02.422-.09-.09-.074-.278-.085-.399h-.047zm0 0" fill="#31127c"/><path d="M12.57 9.25q.063.025.133.043c.016.418.016.418-.09.621q-.04-.042-.086-.09c0-.133 0-.133.016-.293.008-.05.012-.105.016-.156zm0 0" fill="#30127d"/><path d="M11.61 6.195h.046l-.047 1.242h-.043l-.027-.445q-.001-.064-.008-.129c-.011-.246-.004-.437.078-.668m0 0" fill="#250676"/><path d="M12.66 6.727h.043v.664l.086.046h-.219a8 8 0 0 0 .02-.304l.012-.172c.011-.145.011-.145.058-.234m0 0" fill="#401d84"/><path d="M12.922 5.398a.44.44 0 0 1-.012.352l-.035.094-.04.097-.038.102-.094.242c-.05-.176-.027-.27.035-.441l.047-.14c.04-.106.082-.204.137-.306m0 0" fill="#210874"/><path d="M24.445 20.715h.086c.04.289.043.547 0 .84h-.043c-.05-.282-.047-.555-.043-.84m0 0" fill="#280d78"/><path d="M19.773 10.535h.086a.37.37 0 0 1-.175.293c-.172.121-.317.137-.52.149l.258-.13c.14-.077.277-.163.351-.312m0 0" fill="#2c107f"/><path d="M7.813 9.074q.043.022.09.043a4.93 4.93 0 0 1-.048.797h-.043c-.03-.289-.054-.555 0-.84m0 0" fill="#1d067c"/><path d="M24.574 23.191c.035.075.035.075.043.18a.77.77 0 0 1-.476.309l-.09-.09q.035-.013.07-.031c.203-.094.328-.176.453-.368m0 0" fill="#260c76"/><path d="M7.945 16.156h.086q.048.136.09.278l.05.156c.036.14.036.14-.007.273q-.051-.113-.098-.226-.042-.102-.086-.203c-.035-.102-.035-.102-.035-.278m0 0" fill="#fb5d00"/><path d="M23.441 10.578c.141.145.125.332.13.531a3 3 0 0 1-.044.309h-.043a5.5 5.5 0 0 1-.043-.84m0 0" fill="#260976"/><path d="M7.508 12.527h.043v.485h-.043q-.022.153-.043.312h-.043c-.016-.562-.016-.562.086-.797m0 0" fill="#2f127a"/><path d="M23.266 8.809l.086.043c.054.273.039.523 0 .796h-.043a5 5 0 0 1-.043-.84m0 0" fill="#1f0572"/><path d="M18.332 5.754q.023.042.047.09h.086l.047.207.023.117a.8.8 0 0 1-.027.34h-.043l-.02-.11-.023-.144-.024-.14a6 6 0 0 0-.066-.36m0 0" fill="#2b117c"/><path d="M19.598 6.418h.047v.973l.085.046a3 3 0 0 0-.175.043q.023-.525.043-1.062m0 0" fill="#391b84"/><path d="M8.773 14.781c.211.02.301.106.438.266v.09c-.172-.075-.297-.184-.438-.309zm0 0" fill="#2c1074"/><path d="M13.008 3.586l.133.043-.352.309-.086-.086.129-.047.09-.176c.027-.016.055-.027.086-.043m0 0" fill="#260c7e"/><path d="M19.555 10.844q-.083.032-.164.062l-.094.035q-.112.043-.223.079c-.094-.063-.094-.063-.172-.133l.254-.047.14-.024c.13-.015.13-.015.259.028m0 0" fill="#3a1c84"/><path d="M7.332 13.809h.047q.018.22.043.441h-.09v.266h-.043a3.3 3.3 0 0 1 .043-.707m0 0" fill="#3f1b81"/><path d="M23.703 12.746h.043l.043.754c-.148-.203-.14-.238-.117-.477l.015-.156.016-.12m0 0" fill="#3b1d84"/><path d="M16.414 2.832l-.613-.043v-.047c.261-.043.39-.058.613.09m0 0" fill="#2d107c"/><path d="M23.527 11.11h.043c.043.21.047.406.043.62h-.043v-.222h-.086l.043-.399m0 0" fill="#3e1f84"/><path d="M7.684 10.402h.043q.016.093.03.192l.016.105c-.003.102-.003.102-.132.235q.018-.263.043-.532m0 0" fill="#39198e"/></svg>